<svg xmlns="http://www.w3.org/2000/svg" 
width="3431" height="3431" viewBox="0 0 3304.45 3304.45" 
shape-rendering="geometricPrecision" image-rendering="optimizeQuality" 
fill-rule="evenodd" >
<g stroke-miterlimit="22.9256">
<path d="M1652.23 56.88c881.08 0 1595.34 714.26 1595.34 1595.35 0 881.08-714.26 1595.34-1595.34 1595.34-881.09 0-1595.35-714.26-1595.35-1595.34 0-881.09 714.26-1595.35 1595.35-1595.35z" stroke="#82653c" stroke-width="113.77" fill="#345e48"/><g stroke="#2b2a29"><g fill="#fefefe">
<path d="M442.6 2279.98l-13.81-29.67 71.56-33.32c7.48-3.48 12.54-6.95 15.18-10.4 3.61-4.87 3.77-10.81.54-17.75-4.24-9.1-12.6-16.64-25.12-22.69l-4.24 1.98-79.05 36.79-13.93-29.92 71.07-33.08c16.12-7.51 21.55-16.91 16.29-28.22-4.25-9.14-12.66-16.76-25.2-22.85l-83.29 38.77-13.92-29.92 117.94-54.91 11.72 25.18-11.57 9.03c16.82 8.76 28.29 19.7 34.4 32.84 6.89 14.79 5.78 27.84-3.31 39.16 18.23 8.3 30.67 19.6 37.32 33.9 12.07 25.93 4.56 45.2-22.53 57.82l-80.05 37.26zm67.77 120.01l-13.77-24.13 7.31-10.5c-13.55-4.51-23.92-13.06-31.1-25.64-6.08-10.67-7.82-21.4-5.21-32.18 2.61-10.77 9.41-19.3 20.4-25.57 11.47-6.54 22.8-7.41 33.98-2.6 11.19 4.8 21.2 14.4 30.04 28.78l12.16 19.66 2.87-1.64c12.74-7.27 15.02-18.07 6.85-32.4-5.91-10.36-14.24-18.48-24.99-24.38l12.6-19.54c15.46 7.86 28 20.23 37.64 37.11 17.08 29.94 11.92 52.73-15.47 68.36L539 2380.81c-15.76 8.99-25.31 15.39-28.63 19.18zm9.58-46.94l24.17-13.79-9.27-16.25c-9.02-14.7-18.43-19.25-28.22-13.67-10.59 6.05-12.39 15.2-5.4 27.46 4.55 7.97 10.8 13.37 18.72 16.25zm79.29 163.36l-20.43-25.93 60.06-47.32c14.83-11.69 18.28-22.58 10.34-32.66-6.13-7.78-16.54-13.58-31.24-17.41l-71.5 56.35-20.43-25.93 102.18-80.52 17.37 22.03-8.81 11.5c18.35 4.91 32.24 13.35 41.66 25.3 7.03 8.93 10.16 18.38 9.37 28.34-1.15 11.87-8.06 22.81-20.73 32.79l-67.84 53.46zm97.56 92.34c-15.99-3.31-29.9-11.24-41.73-23.77-13.97-14.81-20.12-30.94-18.44-48.4 1.51-16.3 9.26-31.06 23.26-44.27 14.41-13.6 30.71-20.23 48.93-19.89 18.22.33 33.99 7.56 47.34 21.7 10.19 10.8 16.48 21.88 18.88 33.23l-19.98 18.1c-1.22-11.71-6.11-22.1-14.67-31.16-7.67-8.14-16.83-12.1-27.48-11.89-10.64.21-20.36 4.47-29.16 12.78-8.67 8.18-13.73 17.11-15.17 26.8-1.36 10.86 2.18 20.75 10.62 29.69 6.79 7.2 16.04 12.59 27.74 16.17l-10.14 20.91zm94.48 99.94l-25.48-21.41 48.83-58.12c12.14-14.47 13.17-25.94 3.06-34.44-7.59-6.36-18.61-9.64-33.07-9.81l-58.21 69.29-25.27-21.23 125.26-149.11 25.27 21.23-50.6 60.23c18.13.38 32.81 5.29 44.04 14.72 21.2 17.81 21.54 38.93 1.01 63.36l-54.84 65.29zm146.38 38.83l-67.94-49.21c-5.53 7.95-7.31 16.5-5.35 25.68 1.99 9.13 7.14 16.71 15.46 22.74 9.2 6.66 20.17 10.75 32.88 12.26l-5.96 21.84c-16.73-.35-32.3-5.74-46.7-16.17-17.23-12.47-26.44-27.74-27.62-45.81-1.11-15.97 3.93-31.68 15.11-47.12 11.3-15.6 24.89-25.45 40.77-29.57 16.76-4.39 32.42-1.31 46.98 9.23 14.25 10.32 22.11 23.54 23.6 39.62s-3.7 32.3-15.61 48.75l-5.62 7.76zm-14.07-38.72c4.37-6.34 6.48-12.85 6.33-19.52-.16-7.6-3.44-13.7-9.82-18.33-6.24-4.51-12.95-5.8-20.12-3.87-7.18 1.94-12.97 5.95-17.38 12.04l40.99 29.68zm99.28 110.86c-6.67 11.81-16.47 18.18-29.41 19.08-11.21.84-23.44-2.49-36.69-9.97-16.61-9.38-28.6-20.78-35.97-34.2l21.24-15.81c5.96 12.21 14.2 21.28 24.74 27.23 12.94 7.31 21.66 6.97 26.16-1.02 3.07-5.43 1.21-12.58-5.57-21.46-11.26-14.36-17.48-22.93-18.65-25.7-5.59-11.36-5.27-22.55.95-33.57 5.68-10.06 14.04-16.02 25.1-17.89 11.05-1.87 23.29.99 36.7 8.56 12.3 6.94 22.31 15.12 30.05 24.54L1048 2763.4c-9.34-11.8-18.65-20.31-27.91-25.54-10.7-6.04-17.89-5.79-21.59.76-2.61 4.63-.41 11.35 6.62 20.16 10.65 13.6 16.94 22.41 18.87 26.45 5.57 11.77 5.19 23.25-1.12 34.43zm85.85 73.35c-15.84 2.41-30.95-.05-45.33-7.39-19.11-9.75-24.04-23.69-14.79-41.82l35.26-69.09-20.58-10.5 11.25-22.05 20.58 10.5 13.62-26.7 33.9 6.18-18.12 35.52 36.01 18.38-19.82 17.67-27.44-14-29.76 58.31c-4.5 8.82-3.07 15.11 4.28 18.86 6.37 3.25 13.9 4.42 22.6 3.51l-1.66 22.62zm137.2 4.54l-77.82-31.34c-3.44 9.04-3.11 17.78 1.01 26.21 4.14 8.38 10.97 14.49 20.49 18.33 10.55 4.25 22.17 5.57 34.88 3.96l-.52 22.63c-16.32 3.71-32.73 2.24-49.22-4.41-19.74-7.94-32.35-20.54-37.86-37.78-4.94-15.23-3.84-31.7 3.28-49.38 7.19-17.86 18-30.71 32.42-38.54 15.21-8.31 31.15-9.1 47.82-2.39 16.32 6.58 27.14 17.51 32.47 32.75s4.21 32.24-3.37 51.08l-3.58 8.88zm-23.01-34.17c2.71-7.21 3.19-14.04 1.43-20.48-1.99-7.32-6.64-12.46-13.96-15.41-7.14-2.87-13.96-2.51-20.46 1.1-6.49 3.62-11.14 8.91-13.95 15.88l46.94 18.91zm144.21-7.04l-19.46 23.55c-3.81-3.97-8.36-6.73-13.64-8.26-7.75-2.26-16.83-.9-27.26 4.09l-25.76 88.47-31.69-9.23 36.37-124.91 26.67 7.76-.41 14.21c15.28-7.2 28.37-9.22 39.29-6.04 6.69 1.95 11.98 5.4 15.89 10.36zm54.47-32.34c-1.26 5.36-4.25 9.51-8.98 12.45-4.74 2.95-9.97 3.75-15.68 2.42-5.53-1.3-9.78-4.27-12.75-8.91-2.96-4.65-3.8-9.74-2.5-15.28 1.25-5.35 4.23-9.46 8.95-12.31 4.71-2.85 9.84-3.63 15.37-2.34 5.72 1.33 10.05 4.32 13.02 8.97 2.96 4.65 3.82 9.65 2.57 15zm-42.74 164.86l-32.14-7.51 29.58-126.69 32.15 7.51-29.59 126.69zm141.56-103.45l-17.04 25.36c-4.18-3.58-8.98-5.87-14.39-6.88-7.93-1.48-16.84.77-26.72 6.76l-16.89 90.58-32.45-6.05 23.85-127.89 27.31 5.09 1 14.18c14.48-8.68 27.32-11.97 38.49-9.89 6.85 1.28 12.46 4.19 16.84 8.74zm42.36-43c-.41 5.48-2.74 10.04-6.97 13.67-4.23 3.64-9.27 5.23-15.12 4.78-5.67-.43-10.32-2.71-13.96-6.85s-5.24-9.05-4.81-14.71c.42-5.49 2.74-10 6.96-13.54 4.23-3.54 9.17-5.1 14.84-4.66 5.85.44 10.6 2.73 14.23 6.87 3.64 4.14 5.25 8.95 4.83 14.44zm-17.04 169.45l-32.91-2.51 9.88-129.72 32.91 2.51-9.88 129.72zm127.05-31.92c-.44 13.56-6.19 23.74-17.24 30.53-9.55 5.93-21.93 8.64-37.14 8.14-19.06-.63-34.96-5.18-47.71-13.68l11.52-23.83c10.92 8.06 22.43 12.29 34.53 12.69 14.84.48 22.42-3.85 22.72-13.02.2-6.23-4.75-11.71-14.87-16.45-16.64-7.52-26.11-12.23-28.44-14.14-10.21-7.49-15.11-17.56-14.69-30.2.38-11.55 5.04-20.71 13.97-27.48 8.94-6.77 21.11-9.9 36.5-9.39 14.11.46 26.78 3.08 37.99 7.85l-.9 27.49c-13.74-6.14-25.92-9.39-36.56-9.73-12.27-.41-18.54 3.15-18.78 10.66-.18 5.32 4.89 10.25 15.2 14.81 15.73 7.12 25.38 12.03 28.96 14.71 10.38 7.87 15.36 18.21 14.94 31.04zm139.85 27.85l-33.18 2.53-5.77-75.7c-1.43-18.83-8.73-27.75-21.9-26.74-9.87.75-20.04 6.12-30.49 16.11l6.87 90.23-32.91 2.51-14.79-194.17 32.91-2.51 5.98 78.44c13.21-12.41 27.13-19.17 41.76-20.29 27.61-2.1 42.62 12.75 45.05 44.57l6.47 85.02zm75.51-204.11l-2.05 25.01c-6.24-1.45-11.88-1.7-16.93-.76-10.09 1.88-14.06 8.63-11.89 20.26l3.81 20.41 33.8-6.3-3.74 26.44-25.42 4.74 19.21 103.02-32.45 6.05-19.21-103.02-18.65 3.48-4.64-24.87 18.65-3.49-3.32-17.84c-3.16-16.95-.15-30.28 9.04-40.02 6.68-7.21 15.87-11.91 27.59-14.1 9.19-1.71 17.93-1.38 26.2.99zM2028.8 2907l-81.74 18.86c2.36 9.38 7.63 16.35 15.84 20.9 8.19 4.51 17.29 5.61 27.29 3.3 11.08-2.55 21.37-8.13 30.86-16.72l12.54 18.85c-11.26 12.38-25.55 20.57-42.88 24.57-20.73 4.78-38.29 1.68-52.68-9.3-12.76-9.66-21.29-23.78-25.58-42.36-4.33-18.76-2.83-35.48 4.51-50.16 7.71-15.52 20.32-25.3 37.83-29.34 17.16-3.96 32.28-1.19 45.38 8.25 13.09 9.45 21.91 24.02 26.48 43.81l2.15 9.34zm-38.42-14.85c-1.91-7.46-5.43-13.33-10.56-17.6-5.83-4.87-12.58-6.41-20.26-4.64-7.51 1.73-12.89 5.94-16.15 12.62-3.25 6.68-4.04 13.68-2.35 21l49.32-11.38zm148.05-4.98c4.48 12.81 2.8 24.37-5.05 34.7-6.77 8.97-17.33 15.97-31.7 21-18 6.3-34.47 7.79-49.43 4.48l2.13-26.39c13.1 3.57 25.37 3.36 36.79-.64 14.02-4.9 19.51-11.68 16.48-20.34-2.06-5.88-8.66-9.2-19.8-9.97-18.23-1-28.77-1.97-31.62-2.92-12.23-3.29-20.44-10.91-24.62-22.85-3.81-10.91-2.78-21.13 3.11-30.67s16.1-16.86 30.64-21.94c13.33-4.67 26.08-6.8 38.27-6.4l9.08 25.96c-15.03-.76-27.56.61-37.6 4.13-11.6 4.05-16.15 9.63-13.67 16.73 1.76 5.02 8.27 7.79 19.52 8.32 17.24.96 28.02 2.04 32.33 3.26 12.52 3.58 20.9 11.43 25.14 23.54zm122.01-25.76c-7.93 13.93-19.24 24.25-33.9 30.98-19.51 8.94-33.5 4.16-41.98-14.34l-32.32-70.51-21.01 9.63-10.31-22.51 21-9.63-12.49-27.25 25.87-22.75 16.62 36.25 36.76-16.85 1.56 26.51-28 12.84 27.28 59.51c4.13 9 9.94 11.78 17.44 8.34 6.5-2.98 12.09-8.16 16.77-15.55l16.71 15.33zm-18.46-169.25c2.45 4.93 2.78 10.04 1.01 15.32-1.78 5.29-5.29 9.23-10.55 11.85-5.09 2.53-10.25 2.94-15.5 1.25-5.24-1.69-9.13-5.08-11.66-10.17-2.45-4.93-2.76-9.99-.95-15.2 1.82-5.2 5.27-9.07 10.36-11.6 5.26-2.61 10.51-3.07 15.75-1.37 5.24 1.69 9.09 5 11.54 9.92zm72.08 154.3l-29.55 14.69-57.91-116.5 29.56-14.69 57.9 116.5zm59.21-190.52l24.23 139.71-20.2 12.83-115.24-81.9 28.56-18.14 74.88 57.36.47-.3-19.63-92.45 26.93-17.11zm161.95 36.9l-21.82 17.19-11.47-5.66c-2.45 14.07-9.37 25.59-20.75 34.55-9.65 7.6-19.99 10.92-31.04 9.93-11.05-.98-20.49-6.44-28.32-16.38-8.17-10.37-10.71-21.44-7.61-33.22 3.09-11.77 11.09-23.1 24-33.97l17.64-14.95-2.05-2.59c-9.07-11.52-20.1-12.18-33.06-1.96-9.36 7.37-16.16 16.82-20.4 28.33l-21.19-9.57c5.48-16.45 15.85-30.7 31.12-42.73 27.07-21.33 50.37-19.61 69.89 5.16l31.83 40.4c11.24 14.26 18.98 22.75 23.23 25.47zm-47.85-2.51l-17.22-21.85-14.69 11.57c-13.2 11.1-16.31 21.08-9.33 29.94 7.55 9.58 16.87 10 27.96 1.26 7.2-5.68 11.62-12.66 13.28-20.92zm106.21-57.54c-2.84 8.73-7.53 16.19-14.07 22.36-14.53 13.71-28.35 13.64-41.44-.23l-115.91-122.82 24-22.65 105.91 112.21c6.17 6.54 11.39 7.79 15.65 3.76 2.14-2.01 4.16-4.55 6.06-7.6l19.8 14.97zm29.57-46.42c3.97 3.81 6.04 8.34 6.22 13.59.17 5.25-1.58 9.79-5.27 13.63-3.81 3.97-8.34 5.97-13.59 6.02-5.25.04-9.86-1.84-13.83-5.65-4.1-3.94-6.24-8.53-6.41-13.78s1.65-9.86 5.46-13.83c3.68-3.83 8.14-5.77 13.4-5.81 5.25-.05 9.92 1.9 14.02 5.83zm91.15-94.97c-1.73 16.24-8.25 30.86-19.56 43.87-13.35 15.36-28.8 23.07-46.34 23.12-16.37.1-31.82-6.16-46.35-18.79-14.95-13-23.15-28.57-24.61-46.73-1.47-18.16 4.18-34.58 16.93-49.24 9.75-11.21 20.15-18.57 31.22-22.07l19.98 18.1c-11.54 2.37-21.39 8.25-29.58 17.66-7.33 8.44-10.37 17.95-9.12 28.52 1.26 10.57 6.46 19.83 15.59 27.77 8.99 7.82 18.38 11.97 28.16 12.46 10.94.27 20.44-4.22 28.5-13.5 6.5-7.47 10.95-17.2 13.36-29.2l21.82 8.03zm37.31-147.05c16.23 11.34 26.19 25.58 29.88 42.7 3.69 17.13-.14 33.8-11.49 50.03-10.5 15.03-23.5 24.18-38.99 27.45-17.89 3.82-35.62-.41-53.2-12.71-16.08-11.24-26.06-25.54-29.92-42.89-3.86-17.36-.22-34 10.91-49.93 11.46-16.38 25.66-25.81 42.6-28.28s33.68 2.07 50.21 13.63zm-19.32 28.11c-10.37-7.25-20.3-10.73-29.77-10.47-9.49.3-17.05 4.47-22.69 12.55-5.76 8.22-7.03 16.68-3.84 25.4 3.22 8.68 10 16.66 20.37 23.91 10.52 7.36 20.56 10.91 30.1 10.7 9.57-.24 17.17-4.39 22.82-12.46 5.75-8.23 6.88-16.89 3.42-26.02-3.24-8.48-10.04-16.36-20.41-23.61zm86.31-45.88c4.76 2.76 7.85 6.66 9.27 11.72 1.41 5.06.79 9.89-1.87 14.49-2.76 4.76-6.68 7.79-11.77 9.08s-10.02.56-14.78-2.19c-4.92-2.85-8.09-6.8-9.5-11.86-1.42-5.05-.75-9.96 2-14.73 2.66-4.6 6.54-7.55 11.63-8.84s10.1-.51 15.02 2.33zm81.82-119.98l-12.51 24.19-14.13-.81c3.89 15.23 2.43 29.43-4.39 42.63-5.14 9.93-12.33 16.85-21.57 20.74-12.45 5.33-26.99 3.69-43.6-4.9l-73.05-37.77 15.15-29.32 71.35 36.89c15.63 8.09 27.03 5.21 34.19-8.64 4.04-7.82 4.7-16.87 1.97-27.16l-85.27-44.09 15.16-29.32 83.56 43.21c16.94 8.76 27.98 13.54 33.14 14.35zm53.36-138.96l-14.54 36.1-73.6 20.76h0l56.13 22.61-12.33 30.62-180.63-72.76 12.33-30.62 101.03 40.7.42-.18-25.6-55.83 14.21-35.29 31.96 70.59 90.62-26.7z" stroke-width="2.01" fill-rule="nonzero"/><path d="M1659.24 1739.99c282.46 0 511.44 228.99 511.44 511.45 0 282.47-228.98 511.45-511.44 511.45-282.47 0-511.45-228.98-511.45-511.45 0-282.46 228.98-511.45 511.45-511.45z" stroke-width="1.14"/></g><path d="M1659.24 1787.88c256.02 0 463.56 207.54 463.56 463.56S1915.26 2715 1659.24 2715s-463.57-207.54-463.57-463.56 207.55-463.56 463.57-463.56z" stroke-width="2.28"/></g></g><g fill="#fefefe"><path d="M600.17 926.42h70.67v-30.63H495.33v30.63h70.28v249.71h34.56zm95.41 249.71h32.98v-145.27c0-30.63 23.95-42.41 41.62-42.41 29.84 0 31.02 26.31 31.02 42.41v145.27h32.98v-149.2c0-24.73 0-66.75-54.18-66.75-18.85 0-42.02 12.17-50.65 29.45h-.79v-93.84h-32.98v280.34zm210.45-127.21v-7.85c0-12.57 3.93-54.97 38.48-54.97 29.06 0 36.52 27.87 36.52 51.43v11.39h-75zm109.55 25.91v-13.35c0-45.15-5.89-101.3-70.28-101.3-64.79 0-75 60.86-75 113.47 0 72.25 21.6 107.98 73.03 107.98 57.33 0 70.68-52.22 70.68-74.6h-32.98c0 15.7-4.32 48.69-35.73 48.69-40.44 0-40.44-48.69-40.44-80.89h110.72zm132.32 101.3h34.55v-245h.78l62.04 245h34.55l62.04-245h.78v245h34.56V895.79h-58.11l-56.15 222.23h-.79l-56.14-222.23h-58.11zm302.33-146.84v-1.97c0-7.46 0-41.22 36.12-41.22 21.99 0 33.77 11.38 33.77 31.01 0 17.67 0 24.35-23.95 31.81l-44.37 13.35c-27.09 8.24-39.66 28.66-39.66 58.11 0 37.69 18.06 61.25 57.33 61.25 19.63 0 40.05-11.39 50.65-30.23h.78c1.57 27.09 17.28 27.09 29.84 27.09 8.25 0 16.89-1.57 19.24-1.96v-23.56c-1.57 1.18-3.53 1.96-7.85 1.96-10.21 0-10.21-8.24-10.21-16.88v-117.4c0-21.99 0-60.47-64-60.47-50.26 0-70.67 21.21-70.67 69.11h32.98zm68.71 86.38c0 21.59-20.81 40.05-42.41 40.05-22.38 0-29.83-14.92-29.83-36.13 0-18.45 5.49-26.7 16.09-33.37 14.92-9.03 43.98-11.78 56.15-24.74v54.19zm77.74 60.46h32.98v-145.27c0-30.63 23.95-42.41 41.62-42.41 29.84 0 31.02 26.31 31.02 42.41v145.27h32.98v-149.2c0-24.73 0-66.75-55.36-66.75-20.42 0-42.4 11-51.04 30.24h-.79v-24.74h-31.41v210.45zm314.9-146.84c0-24.15-9.82-69.11-67.14-69.11-64.79 0-75 60.53-75 113.21 0 72.51 21.6 108.24 73.03 108.24 52.62 0 69.11-45.22 69.11-78.66h-32.98c0 22.84-6.29 52.75-34.56 52.75-39.65 0-40.05-55.17-40.05-82.72 0-76.83 20.81-86.9 41.23-86.9 25.13 0 33.38 22.9 33.38 43.19h32.98zm34.16 146.84h32.98v-145.27c0-30.63 23.95-42.41 41.62-42.41 29.84 0 31.02 26.31 31.02 42.41v145.27h32.98v-149.2c0-24.73 0-66.75-54.19-66.75-18.84 0-42.01 12.17-50.65 29.45h-.78v-93.84h-32.98v280.34zm210.45-127.21v-7.85c0-12.57 3.93-54.97 38.48-54.97 29.05 0 36.51 27.87 36.51 51.43v11.39h-74.99zm109.55 25.91v-13.35c0-45.15-5.89-101.3-70.29-101.3-64.78 0-74.99 60.86-74.99 113.47 0 72.25 21.6 107.98 73.03 107.98 57.33 0 70.68-52.22 70.68-74.6h-32.99c0 15.7-4.31 48.69-35.73 48.69-40.44 0-40.44-48.69-40.44-80.89h110.73zm159.41-47.51c-.4-24.73-2.75-67.14-64-67.14-36.52 0-67.14 18.85-67.14 58.11 0 43.59 26.3 51.05 51.82 59.68 25.53 8.64 51.44 14.53 51.44 42.8 0 29.84-24.34 34.95-34.94 34.95-32.2 0-39.27-23.17-39.27-48.69h-32.98c0 21.59.78 74.6 72.25 74.6 39.26 0 67.92-21.59 67.92-65.96 0-41.62-25.91-50.65-51.43-59.29-25.92-8.64-51.83-13.35-51.83-38.09 0-29.45 23.56-32.19 34.16-32.19 23.95 0 31.02 14.52 31.02 41.22h32.98zm46.33-61.64h-30.63v25.91h30.63v145.28c0 27.48 8.24 41.62 42.4 41.62 13.75 0 22.38-1.57 26.7-2.36v-27.09c-3.53.39-7.46 1.18-14.53 1.18-17.27 0-21.59-6.68-21.59-23.56V991.59h36.52v-25.91h-36.52v-61.25h-32.98v61.25zm120.54 83.24v-7.85c0-12.57 3.92-54.97 38.48-54.97 29.05 0 36.51 27.87 36.51 51.43v11.39h-74.99zm109.54 25.91v-13.35c0-45.15-5.89-101.3-70.28-101.3-64.78 0-74.99 60.86-74.99 113.47 0 72.25 21.59 107.98 73.03 107.98 57.32 0 70.67-52.22 70.67-74.6h-32.98c0 15.7-4.32 48.69-35.73 48.69-40.44 0-40.44-48.69-40.44-80.89h110.72zm36.13 101.3h32.98v-133.1c0-34.95 26.7-49.87 43.19-49.87 10.6 0 14.53 1.18 17.67 1.57v-32.19c-3.14-1.57-7.86-2.36-14.53-2.36-23.56 0-36.12 16.89-45.55 36.91h-.78v-31.41h-32.98v210.45zM781.57 1625.31h34.55v-280.34h-34.55zm78.92 0h32.98v-133.1c0-34.95 26.7-49.87 43.19-49.87 10.6 0 14.53 1.18 17.67 1.57v-32.19c-3.14-1.57-7.86-2.36-14.53-2.36-23.56 0-36.12 16.88-45.55 36.91h-.78v-31.41h-32.98v210.45zm118.18 0h32.98v-210.45h-32.98v210.45zm0-242.65h32.98v-37.69h-32.98v37.69zm201.42 93.84c-.39-24.74-2.74-67.14-64-67.14-36.51 0-67.14 18.85-67.14 58.11 0 43.58 26.31 51.04 51.83 59.68s51.44 14.53 51.44 42.8c0 29.84-24.35 34.94-34.95 34.94-32.19 0-39.26-23.16-39.26-48.68h-32.98c0 21.59.78 74.6 72.24 74.6 39.27 0 67.93-21.6 67.93-65.97 0-41.62-25.92-50.65-51.44-59.28-25.91-8.64-51.83-13.35-51.83-38.09 0-29.45 23.56-32.2 34.16-32.2 23.95 0 31.02 14.53 31.02 41.23h32.98zm36.52 148.81h32.98v-145.28c0-30.62 23.95-42.4 41.62-42.4 29.84 0 31.02 26.31 31.02 42.4v145.28h32.98v-149.2c0-24.74 0-66.75-54.18-66.75-18.85 0-42.02 12.17-50.65 29.45h-.79v-93.84h-32.98v280.34zm277.2 0h34.55v-131.14h104.05v-30.63h-104.05v-87.95h110.33v-30.62h-144.88zm192.39-127.21v-7.86c0-12.56 3.93-54.97 38.48-54.97 29.06 0 36.52 27.88 36.52 51.44v11.39h-75zm109.55 25.91v-13.35c0-45.15-5.89-101.3-70.28-101.3-64.79 0-75 60.86-75 113.47 0 72.25 21.6 107.98 73.03 107.98 57.33 0 70.68-52.22 70.68-74.6h-32.98c0 15.7-4.32 48.68-35.73 48.68-40.44 0-40.44-48.68-40.44-80.88h110.72zm159.41-47.51c-.39-24.74-2.75-67.14-64-67.14-36.52 0-67.14 18.85-67.14 58.11 0 43.58 26.31 51.04 51.83 59.68s51.43 14.53 51.43 42.8c0 29.84-24.34 34.94-34.94 34.94-32.2 0-39.27-23.16-39.27-48.68h-32.98c0 21.59.79 74.6 72.25 74.6 39.26 0 67.92-21.6 67.92-65.97 0-41.62-25.91-50.65-51.43-59.28-25.92-8.64-51.83-13.35-51.83-38.09 0-29.45 23.56-32.2 34.16-32.2 23.95 0 31.02 14.53 31.02 41.23h32.98zm46.33-61.64h-30.62v25.91h30.62v145.28c0 27.48 8.25 41.62 42.41 41.62 13.74 0 22.38-1.57 26.7-2.36v-27.09c-3.54.39-7.46 1.18-14.53 1.18-17.28 0-21.6-6.68-21.6-23.56v-135.07h36.52v-25.91h-36.52v-61.25h-32.98v61.25zm93.84 210.45h32.98v-210.45h-32.98v210.45zm0-242.65h32.98v-37.69h-32.98v37.69zm117.4 242.65h37.69l56.94-210.45h-36.13l-39.26 168.83h-.79l-39.26-168.83h-36.12zm148.03-146.85v-1.96c0-7.46 0-41.23 36.12-41.23 21.98 0 33.76 11.39 33.76 31.02 0 17.67 0 24.35-23.95 31.81l-44.36 13.35c-27.1 8.24-39.66 28.66-39.66 58.11 0 37.69 18.06 61.25 57.32 61.25 19.64 0 40.05-11.39 50.65-30.24h.79c1.57 27.1 17.28 27.1 29.84 27.1 8.25 0 16.88-1.57 19.24-1.97v-23.56c-1.57 1.18-3.53 1.97-7.85 1.97-10.21 0-10.21-8.25-10.21-16.89v-117.39c0-21.99 0-60.47-64-60.47-50.26 0-70.68 21.2-70.68 69.1h32.99zm68.71 86.38c0 21.6-20.81 40.05-42.41 40.05-22.38 0-29.84-14.92-29.84-36.12 0-18.45 5.5-26.7 16.1-33.37 14.92-9.03 43.97-11.78 56.15-24.74v54.18zm79.7 60.47h32.98v-280.34h-32.98z" fill-rule="nonzero"/><path d="M1538.78 2265.8c0-15.64 13.15-15 13.15-15v-2.41h-46.88v2.41s13.16-.67 13.16 15v86.68c0 15.64-13.16 15-13.16 15v2.45h46.92v-2.45s-13.16.68-13.16-15l-.03-86.68zm49.4 86.68v-71.78l-8.44-12.03v83.6c0 13.26-15.71 15-15.71 15v2.45h40.04v-2.45s-15.93-1.21-15.93-14.93l.04.14zm54.08-104.09v2.44s16.03 1.46 16.03 15.18v61.54l-56.74-79.13h-38.2v2.41s10.64.89 20.72 15.5c.67 1 75.15 103.63 75.15 103.63h7.34v-103.98c0-13.27 15.64-15.18 15.64-15.18v-2.45h-39.94v.04zm69.13 104.09v-71.78l-8.44-12.03v83.6c0 13.26-15.72 15-15.72 15v2.45h40.04v-2.45s-15.92-1.21-15.92-14.93l.04.14zm54.12-104.09v2.44s16.03 1.46 16.03 15.18v61.54l-56.75-79.13h-38.09v2.41s10.64.89 20.71 15.5c.68 1 75.16 103.63 75.16 103.63h7.34v-103.98c0-13.27 15.64-15.18 15.64-15.18v-2.45h-40.04v.04zm-309.23.03v2.45c2.31 0 15.64 1.45 15.64 15.18v64.94c0 13.47-6.38 34.82-28.19 34.82-25.18 0-30.29-19.68-30.29-30.46v-69.37c-.04-.44-.06-.89-.06-1.33a13.83 13.83 0 0 1 13.83-13.83c.21 0 .42.01.63.02v-2.45h-51.28v2.44c.2 0 .42-.01.63-.01a13.83 13.83 0 0 1 13.83 13.83 11.85 11.85 0 0 1-.07 1.33v70.93c0 9.65 4.01 37.17 46.39 37.17s42.88-33.27 42.88-46.89v-61.18c0-13.26 13.9-15.18 16.03-15.18v-2.44h-39.97v.03zm441.87 89.98h-3.09c-.97 5.04-3.18 9.77-6.42 13.76a29.06 29.06 0 0 1-21.26 9.26c-.48 0-.96-.02-1.43-.04h-20.47v-52.31h9.61c4.4 0 15.64.28 19.51 3.3 3.27 2.48 5.43 6.18 5.99 10.25h1.95v-36.32h-1.84c-.44 4.22-2.61 8.08-5.99 10.64-3.55 2.66-15.11 2.91-19.51 2.91h-9.61v-43.7h12.62c6.39 0 19.79-.39 25.72 4.01 4.09 2.62 6.89 6.85 7.69 11.63l1.56.01v-23.38h-80.29v2.41s13.16-.74 13.16 14.9v86.78c0 15.64-13.16 15.01-13.16 15.01v2.41h79.55l5.71-31.53zm57.49-41.92c-9.22-3.55-31.92-7.31-31.92-24.83 0-13.19 12.48-20.71 23.41-20.71l.74-.01a30.57 30.57 0 0 1 23.59 11.15c3.55 4.35 6.22 9.39 7.8 14.79h2.2v-28.59h-2.2c-1.26 1.49-3.11 2.35-5.06 2.35-.1 0-.2 0-.3-.01-6.52 0-8.79-6.38-27.41-6.38-20.17.58-36.4 16.76-37.07 36.92 0 20.46 18.87 30.22 34.58 35.46 17.2 5.71 30.5 12.95 30.5 26.04 0 13.08-9.82 20.6-22.91 20.6-13.08 0-20.39-4.93-28.01-13.62-4.93-6.04-8.31-13.2-9.83-20.85h-2.83v41.1h2.69c1.32-2.67 3.95-4.46 6.92-4.72 7.66-.56 15.53 6.35 31.21 6.35.14 0 .31.01.46.01 20.18 0 36.53-16.36 36.53-36.53v-.68c0-25.08-22.73-33.94-33.05-37.81l-.04-.03zm88.02 0c-9.22-3.55-31.92-7.31-31.92-24.83 0-13.19 12.45-20.71 23.41-20.71l.74-.01a30.57 30.57 0 0 1 23.59 11.15 42.13 42.13 0 0 1 7.8 14.78l2.2.01v-28.59h-2.2c-1.26 1.49-3.11 2.35-5.06 2.35-.1 0-.2 0-.29-.01-6.53 0-8.8-6.38-27.42-6.38-20.13.59-36.35 16.75-36.99 36.88 0 20.43 18.83 30.22 34.54 35.47 17.21 5.71 30.51 12.94 30.51 26.03s-9.86 20.68-22.95 20.68-20.39-4.93-28.02-13.62c-4.93-6.04-8.3-13.21-9.82-20.86h-2.77v41.11h2.7a8.54 8.54 0 0 1 6.91-4.72c7.66-.57 15.54 6.35 31.21 6.35h.47c20.17 0 36.53-16.36 36.53-36.53 0-.22-.01-.46-.01-.68 0-25.07-22.73-33.94-33.05-37.8l-.11-.07zm-720.83 4.57v2.42l.59-.02a13.66 13.66 0 0 1 13.65 13.66 13.92 13.92 0 0 1-.06 1.29v32.34a13.01 13.01 0 0 1 .03.89l-.03.88v3.8c-9.06 5.05-19.27 7.7-29.65 7.7h-.39c-10 0-41.78-2.24-41.78-66.08s36.21-67.38 42.24-67.91a44.21 44.21 0 0 1 3.45-.14c10.23 0 20.17 3.5 28.15 9.89 7.64 7.16 12.7 16.69 14.36 27.03l3.55-.01v-39.54h-1.98a9.7 9.7 0 0 1-7.08 3.08c-.26 0-.51-.01-.76-.03-7.09 0-18.58-9.22-39.4-8.55-42.31 1.39-72.07 33.06-72.07 79.3l-.02 1.71c0 38.73 31.42 70.15 70.15 70.15h.2.23a120.81 120.81 0 0 0 14.24-.85h.21c2.17-.39 4.51-.54 7.1-1.1h.6c3.08-.61 5.99-1.28 8.58-1.99a38.84 38.84 0 0 1 8.73-1c4.82 0 9.62.91 14.11 2.66v-52.27a13.92 13.92 0 0 1-.06-1.29c0-7.54 6.12-13.65 13.65-13.65.2 0 .4 0 .6.01v-2.41l-51.14.03z"/></g><g fill="#fcc978"><path d="M1782.91 1851.85c-21.41 19.97-69.6 38.82-154.45 8.84-84.85-29.99-106.48 17.93-106.48 35.28 0 9.26 3 31.31 32.12 31.31 15.08-.26 27.58-11.76 29.12-26.76a53.51 53.51 0 0 0-7.92-22.49c19.16 0 23.23 0 80.3 26.77 36.25 16.49 99.31 46.52 151.78-4.82-5.5-17.29-13.92-33.63-24.78-48.17l.31.04zm-204.29 107.02a10.72 10.72 0 0 1-10.71-10.71 10.71 10.71 0 1 1 21.42 0h0a25.67 25.67 0 0 1-17.62 7.02c-14.14 0-25.62-11.48-25.62-25.62 0-7.04 2.9-13.77 8.01-18.61l24.52 47.92z"/><path d="M1785.59 1916.52c16.59 126.94-38.28 195.25-64.24 229.67-20.51 26.77-21.95 38.49-14.67 49.95-11.04 4.47-22.86 6.77-34.78 6.77a92.76 92.76 0 0 1-24.86-3.39c-3.58-5.17-6.37-10.88-8.25-16.87 14.3-10.71 38.87-32.13 64.24-73.46 55.89-80.67 47.28-173.45 47.12-181.48 12.39-1.44 24.45-5.23 35.44-11.13v-.06zm-39.19 10.01l-72.17 164.41 2.2 3h.37l73.99-167.94-4.39.54v-.01zm-80.63 150.01l2.2 4.07 67.56-153.97h-3.91zm-7.76-15.95l2.04 4.44 61.3-139.78-3.75-.64zm-7.71-16.12l2.04 4.39 55.62-126.23-3.59-.91zm-7.55-16.54l2.04 4.5 49.89-113.71-3.48-1.18zm-7.44-16.7l2.04 4.55 44.65-101.72-3.43-1.34zm-7.65-16.76l1.98 4.55 39.56-90.21-3.37-1.49zm26.12-92.67l-33.24 75.81 1.98 4.6 34.58-78.86h-.53zm-40.58 58.89l1.98 4.6 29.72-67.67-3.32-1.55zm-7.33-16.92l1.98 4.61 24.73-56.38-3.37-1.49zm-7.39-16.81l1.98 4.61 19.65-44.87-3.37-1.44z"/><path d="M1575.35 1877.87c4.02 1.98 10.71 4.18 19.33 23.07l68.69 151.99s20.18 47.11 39.66 56.38c-35.27 57.92-69.59 76.98-75.53 81.58-.2.19-.46.29-.73.29a1.08 1.08 0 0 1-1.04-.82c-24.57-56.38-42.83-153.76-68.53-252.85-2.51-9.8-6.04-10.17-8.29-10.39 0 0 46.57-2.25 26.76-49.3l-.32.05z"/></g><path d="M1643.18 2174.08a76.06 76.06 0 0 1-9.26 7.01c-3 1.93-6.21 0-9.42-5.78-6.8-16.05-12.48-32.57-17.06-49.37 3 6.05 13.11 32.71 19.91 46.95 2.14 3.69 3.86 6.53 9.21 4.12l6.62-2.93zm-78.21-213.44c.59-12.85-6.05-20.94 2.73-25.59 5.35-3 6.21-5.36 6.21-5.36-.91-4.46-2.52-8.77-4.77-12.74-.42-.59-.75 0-.75 0-3.73 5.73-9.89 9.44-16.7 10.07 8.94 2.78 9.74 28.16 13.22 33.83l.06-.21zm-18.74-67.51c2.02-2.21 4.88-3.47 7.87-3.48h3.16.03a18.83 18.83 0 0 1 9.77 2.73 15.12 15.12 0 0 0-12.92-7.29c-8.34 0-15.1 6.76-15.1 15.1 0 .23.01.47.02.7-.03.36-.04.71-.04 1.07s.01.72.04 1.07c1.25-3.99 3.79-7.46 7.22-9.85l-.05-.05zm22.54 1.5a16.09 16.09 0 0 1 .97 5.5c0 6.45-3.86 12.28-9.8 14.79a17.71 17.71 0 0 0 8.83-3 1.89 1.89 0 0 1 .84-.2c.89 0 1.65.62 1.83 1.48 26.77 64.57 71.26 203.44 97.92 241.77l6.69-7.71c-33.78-42.72-59.85-137.64-107.28-252.63z" fill="#31251c"/><g stroke-miterlimit="22.9256" stroke="#31251c"><path d="M1654.75 2113.37c24.19-11.77 31.74 1.88 43.95 3.54m-42.19.64c20.72-10.07 30.41 1.5 39.3 3.75" stroke-width="2.27" fill="none"/><path d="M1658.81 2121.67c17.72-9.05 29.61 2.63 34.59 3.32m-32.28.54c15.58-6.05 25.59 2.51 29.49 3.32m-27.14.96c3-1.07 10.71-4.02 24.42 2.84m-21.85 1.39c2.07-.5 4.21-.76 6.34-.76 4.48 0 8.9 1.13 12.83 3.28" fill="none" stroke-width="2.38"/><path d="M1668.72 2138.21a26.09 26.09 0 0 1 3.42-.24 24.57 24.57 0 0 1 10.23 2.23m-10.55 2.78l1.4-.05c2.13 0 4.25.36 6.26 1.07" fill="none" stroke-width="2.5"/><path d="M1652.71 2109.2s16.06-7.82 25.22-4.87" stroke-width="2.16" fill="none"/><path d="M1693.67 2110.54c2.49,1.03 5.08,1.84 7.71,2.4" stroke-width="2.5" fill="none"/><path d="M1650.57 2105.02c2.84-1.12 16.65-6.74 22.11-6.37" stroke-width="2.16" fill="none"/><path d="M1648.75 2100.79c6.54-2.85 13.37-5.11 20.34-6.69m-22.21 2.46c6.36-2.73 12.97-5.07 19.65-6.86m-21.74 2.63c2.57-.64 17.77-6.9 19.06-6.85" fill="none" stroke-width="2.04"/><path d="M1642.97 2087.89c3-.37 16.06-5.83 18.47-6.58m-20.29 2.03c6.21-1.69 12.37-3.82 18.31-6.27m-20.18 1.72c6.38-1.39 12.64-3.42 18.63-6.05m-20.78 1.07c5.36.64 17.24-4.71 18.31-5.09m-20.07.27c6.28-.31 12.46-1.87 18.15-4.55m-19.97 0l.71.01a42.39 42.39 0 0 0 17.43-3.76m-20.29-1.6a37.38 37.38 0 0 0 4.09.23 36.19 36.19 0 0 0 14.33-2.96" fill="none" stroke-width="1.93"/><path d="M1629.37 2053.73c2.28.57 4.62.87 6.97.87 4 0 7.96-.85 11.61-2.47m-20.99-4.28c3.02 1.26 6.26 1.9 9.53 1.9s6.51-.64 9.53-1.9m-20.93-5.46c3.42 1.43 7.09 2.17 10.8 2.17 2.82 0 5.62-.43 8.31-1.27m-21.25-6.69a28.39 28.39 0 0 0 12.76 3.03c2.23 0 4.45-.26 6.62-.78m-21.63-8.08c4.94 2.54 10.43 3.88 15.99 3.88 1.2 0 2.41-.07 3.6-.19m-21.84-9.69a42.38 42.38 0 0 0 20.02 5.03m-22.27-10.92c4.39 1.88 13.54 6.7 20.29 6.05m-22.59-11.88c4.07 1.71 17.02 7.76 20.4 6.74m-22.7-12.52c3.69 1.39 17.23 7.81 20.34 7.49" fill="none" stroke-width="1.7"/><path d="M1609.4 2001.86c4.18.53 16.71 7.12 20.61 7.6m-21.84-13.01c4.18.54 16.7 7.12 20.61 7.6m-23.07-12.95c5.35 0 16.7 6.64 20.61 7.12m-22.22-12.37c5.36 0 16.81 6.32 20.77 6.75m-22.75-11.57c4.87-1.23 15.31 4.39 18.15 5.36" fill="none" stroke-width="1.59"/><path d="M1608.22 1957.37a27.51 27.51 0 0 0-5.05-.47 27.6 27.6 0 0 0-9.51 1.7m12.1-6.58l-2.95-.16c-3.77 0-7.5.77-10.97 2.25" fill="none" stroke-width="1.25"/><path d="M1595 1962.72a22.13 22.13 0 0 1 7.68-1.37c2.62 0 5.23.46 7.69 1.37m2.56 5.63c-2.95-1.36-6.18-2.06-9.44-2.06-2.24 0-4.47.33-6.61.99" fill="none" stroke-width="1.36"/><path d="M1598.11 1971.83c1.79-.43 3.65-.65 5.5-.65 4.01 0 7.96 1.01 11.47 2.95m-14.62 2.25s6.05-1.82 17.29 3.8" fill="none" stroke-width="1.59"/><path d="M1590.18 1949.45c4.36-1.81 9.05-2.77 13.76-2.84m-15.52-1.5a49.03 49.03 0 0 1 13.65-3.37m-15.21-.86c4.19-1.77 8.58-3.05 13.07-3.8m-14.78-.43c4.18-1.77 8.56-3.16 13.01-4.12m-14.72-.11c4.14-1.7 8.41-3.19 12.74-4.39m-14.35.22a103.28 103.28 0 0 1 12.8-4.61m-14.46.27s8.67-3.42 12.8-4.76m-14.46.75l12.31-4.72" fill="none" stroke-width="1.25"/></g>
</svg>